<svg class="main-svg" xmlns="http://www.w3.org/2000/svg" xmlns:xlink="http://www.w3.org/1999/xlink" width="700" height="350" style="" viewBox="0 0 700 350"><rect x="0" y="0" width="700" height="350" style="fill: rgb(255, 255, 255); fill-opacity: 1;"/><defs id="defs-4ec13a"><g class="clips"><clipPath id="clip4ec13axyplot" class="plotclip"><rect width="566" height="340"/></clipPath><clipPath class="axesclip" id="clip4ec13ax"><rect x="5" y="0" width="566" height="350"/></clipPath><clipPath class="axesclip" id="clip4ec13ay"><rect x="0" y="5" width="700" height="340"/></clipPath><clipPath class="axesclip" id="clip4ec13axy"><rect x="5" y="5" width="566" height="340"/></clipPath></g><g class="gradients"><linearGradient x1="0" x2="0" y1="1" y2="0" id="g4ec13a-cb897f33"><stop offset="0%" stop-color="rgb(0, 0, 131)" stop-opacity="1"/><stop offset="20%" stop-color="rgb(0, 60, 170)" stop-opacity="1"/><stop offset="40%" stop-color="rgb(5, 255, 255)" stop-opacity="1"/><stop offset="60%" stop-color="rgb(255, 255, 0)" stop-opacity="1"/><stop offset="80%" stop-color="rgb(250, 0, 0)" stop-opacity="1"/><stop offset="100%" stop-color="rgb(128, 0, 0)" stop-opacity="1"/></linearGradient><linearGradient x1="0" x2="0" y1="1" y2="0" id="g4ec13a-cb3d6958"><stop offset="0%" stop-color="rgb(0, 0, 131)" stop-opacity="1"/><stop offset="20%" stop-color="rgb(0, 60, 170)" stop-opacity="1"/><stop offset="40%" stop-color="rgb(5, 255, 255)" stop-opacity="1"/><stop offset="60%" stop-color="rgb(255, 255, 0)" stop-opacity="1"/><stop offset="80%" stop-color="rgb(250, 0, 0)" stop-opacity="1"/><stop offset="100%" stop-color="rgb(128, 0, 0)" stop-opacity="1"/></linearGradient></g><g class="patterns"/></defs><g class="bglayer"><rect class="bg" x="5" y="5" width="566" height="340" style="fill: rgb(229, 236, 246); fill-opacity: 1; stroke-width: 0;"/></g><g class="layer-below"><g class="imagelayer"/><g class="shapelayer"/></g><g class="cartesianlayer"><g class="subplot xy"><g class="layer-subplot"><g class="shapelayer"/><g class="imagelayer"/></g><g class="gridlayer"><g class="x"/><g class="y"/></g><g class="zerolinelayer"/><path class="xlines-below"/><path class="ylines-below"/><g class="overlines-below"/><g class="xaxislayer-below"/><g class="yaxislayer-below"/><g class="overaxes-below"/><g class="plot" transform="translate(5,5)" clip-path="url(#clip4ec13axyplot)"><g class="scatterlayer mlayer"><g class="trace scatter trace7a1121" style="stroke-miterlimit: 2; opacity: 1;"><g class="fills"/><g class="errorbars"/><g class="lines"><path class="js-line" d="M204.35,121.08L367.9,218.92" style="vector-effect: non-scaling-stroke; fill: none; stroke: rgb(128, 0, 0); stroke-opacity: 1; stroke-width: 2px; opacity: 1;"/></g><g class="points"/><g class="text"/></g><g class="trace scatter trace2a95b7" style="stroke-miterlimit: 2; opacity: 1;"><g class="fills"/><g class="errorbars"/><g class="lines"><path class="js-line" d="M204.35,121.08L367.9,23.25" style="vector-effect: non-scaling-stroke; fill: none; stroke: rgb(0, 0, 209); stroke-opacity: 1; stroke-width: 2px; opacity: 1;"/></g><g class="points"/><g class="text"/></g><g class="trace scatter trace97b5d9" style="stroke-miterlimit: 2; opacity: 1;"><g class="fills"/><g class="errorbars"/><g class="lines"><path class="js-line" d="M367.9,218.92L531.45,316.75" style="vector-effect: non-scaling-stroke; fill: none; stroke: rgb(128, 0, 0); stroke-opacity: 1; stroke-width: 2px; opacity: 1;"/></g><g class="points"/><g class="text"/></g><g class="trace scatter tracede4fc9" style="stroke-miterlimit: 2; opacity: 1;"><g class="fills"/><g class="errorbars"/><g class="lines"><path class="js-line" d="M367.9,218.92L531.45,121.08" style="vector-effect: non-scaling-stroke; fill: none; stroke: rgb(0, 0, 128); stroke-opacity: 1; stroke-width: 2px; opacity: 1;"/></g><g class="points"/><g class="text"/></g><g class="trace scatter trace897f33" style="stroke-miterlimit: 2; opacity: 1;"><g class="fills"/><g class="errorbars"/><g class="lines"/><g class="points"><path class="point" transform="translate(204.35,121.08)" d="M3,0A3,3 0 1,1 0,-3A3,3 0 0,1 3,0Z" style="opacity: 0; stroke-width: 0px; fill: rgb(255, 255, 255); fill-opacity: 1;"/></g><g class="text"/></g><g class="trace scatter tracee9c367" style="stroke-miterlimit: 2; opacity: 1;"><g class="fills"/><g class="errorbars"/><g class="lines"/><g class="points"><path class="point" transform="translate(286.13,170)" d="M0.5,0A0.5,0.5 0 1,1 0,-0.5A0.5,0.5 0 0,1 0.5,0Z" style="opacity: 1; stroke-width: 0px; fill: rgb(128, 128, 128); fill-opacity: 1;"/></g><g class="text"/></g><g class="trace scatter trace137ab0" style="stroke-miterlimit: 2; opacity: 1;"><g class="fills"/><g class="errorbars"/><g class="lines"><path class="js-line" d="M40.8,121.08L204.35,121.08" style="vector-effect: non-scaling-stroke; fill: none; stroke: rgb(128, 0, 0); stroke-opacity: 1; stroke-width: 3px; opacity: 1;"/></g><g class="points"/><g class="text"/></g><g class="trace scatter trace350b49" style="stroke-miterlimit: 2; opacity: 1;"><g class="fills"/><g class="errorbars"/><g class="lines"/><g class="points"><path class="point" transform="translate(122.58,121.08)" d="M0.5,0A0.5,0.5 0 1,1 0,-0.5A0.5,0.5 0 0,1 0.5,0Z" style="opacity: 1; stroke-width: 0px; fill: rgb(128, 0, 0); fill-opacity: 1;"/></g><g class="text"/></g><g class="trace scatter trace31ada8" style="stroke-miterlimit: 2; opacity: 1;"><g class="fills"/><g class="errorbars"/><g class="lines"/><g class="points"><path class="point" transform="translate(40.8,121.08)" d="M10,10H-10V-10H10Z" style="opacity: 1; stroke-width: 0px; fill: rgb(128, 128, 128); fill-opacity: 1;"/></g><g class="text"/></g><g class="trace scatter trace3d6958" style="stroke-miterlimit: 2; opacity: 1;"><g class="fills"/><g class="errorbars"/><g class="lines"/><g class="points"><path class="point" transform="translate(40.8,121.08)" d="M5,0A5,5 0 1,1 0,-5A5,5 0 0,1 5,0Z" style="opacity: 1; stroke-width: 0px; fill: rgb(130, 255, 128); fill-opacity: 1;"/><path class="point" transform="translate(204.35,121.08)" d="M5,0A5,5 0 1,1 0,-5A5,5 0 0,1 5,0Z" style="opacity: 1; stroke-width: 0px; fill: rgb(0, 0, 131); fill-opacity: 1;"/><path class="point" transform="translate(367.9,218.92)" d="M5,0A5,5 0 1,1 0,-5A5,5 0 0,1 5,0Z" style="opacity: 1; stroke-width: 0px; fill: rgb(0, 0, 131); fill-opacity: 1;"/><path class="point" transform="translate(367.9,23.25)" d="M5,0A5,5 0 1,1 0,-5A5,5 0 0,1 5,0Z" style="opacity: 1; stroke-width: 0px; fill: rgb(0, 0, 131); fill-opacity: 1;"/><path class="point" transform="translate(531.45,316.75)" d="M5,0A5,5 0 1,1 0,-5A5,5 0 0,1 5,0Z" style="opacity: 1; stroke-width: 0px; fill: rgb(2, 155, 211); fill-opacity: 1;"/><path class="point" transform="translate(531.45,121.08)" d="M5,0A5,5 0 1,1 0,-5A5,5 0 0,1 5,0Z" style="opacity: 1; stroke-width: 0px; fill: rgb(0, 0, 131); fill-opacity: 1;"/></g><g class="text"/></g></g></g><g class="overplot"/><path class="xlines-above crisp" d="M0,0" style="fill: none;"/><path class="ylines-above crisp" d="M0,0" style="fill: none;"/><g class="overlines-above"/><g class="xaxislayer-above"/><g class="yaxislayer-above"/><g class="overaxes-above"/></g></g><g class="polarlayer"/><g class="smithlayer"/><g class="ternarylayer"/><g class="geolayer"/><g class="funnelarealayer"/><g class="pielayer"/><g class="iciclelayer"/><g class="treemaplayer"/><g class="sunburstlayer"/><g class="glimages"/><defs id="topdefs-4ec13a"><g class="clips"/></defs><g class="layer-above"><g class="imagelayer"/><g class="shapelayer"/></g><g class="infolayer"><g class="cb897f33 colorbar" transform="translate(5,5)"><rect class="cbbg" x="623" y="0" width="67.765625" height="340" style="fill: rgb(0, 0, 0); fill-opacity: 0; stroke: rgb(68, 68, 68); stroke-opacity: 1; stroke-width: 0;"/><g class="cbfills" transform="translate(0,10)"><rect class="cbfill" x="633" y="0" width="10" height="320" style="fill: url('#g4ec13a-cb897f33');"/></g><g class="cblines" transform="translate(0,10)"/><g class="cbaxis crisp" transform="translate(0,-5)"><g class="ycb897f33tick"><text text-anchor="start" x="645.9" y="4.199999999999999" transform="translate(0,335)" style="font-family: 'Open Sans', verdana, arial, sans-serif; font-size: 12px; fill: rgb(42, 63, 95); fill-opacity: 1; white-space: pre; opacity: 1;">0</text></g><g class="ycb897f33tick"><text text-anchor="start" x="645.9" y="4.199999999999999" style="font-family: 'Open Sans', verdana, arial, sans-serif; font-size: 12px; fill: rgb(42, 63, 95); fill-opacity: 1; white-space: pre; opacity: 1;" transform="translate(0,271)">20</text></g><g class="ycb897f33tick"><text text-anchor="start" x="645.9" y="4.199999999999999" style="font-family: 'Open Sans', verdana, arial, sans-serif; font-size: 12px; fill: rgb(42, 63, 95); fill-opacity: 1; white-space: pre; opacity: 1;" transform="translate(0,207)">40</text></g><g class="ycb897f33tick"><text text-anchor="start" x="645.9" y="4.199999999999999" style="font-family: 'Open Sans', verdana, arial, sans-serif; font-size: 12px; fill: rgb(42, 63, 95); fill-opacity: 1; white-space: pre; opacity: 1;" transform="translate(0,143)">60</text></g><g class="ycb897f33tick"><text text-anchor="start" x="645.9" y="4.199999999999999" style="font-family: 'Open Sans', verdana, arial, sans-serif; font-size: 12px; fill: rgb(42, 63, 95); fill-opacity: 1; white-space: pre; opacity: 1;" transform="translate(0,79)">80</text></g><g class="ycb897f33tick"><text text-anchor="start" x="645.9" y="4.199999999999999" style="font-family: 'Open Sans', verdana, arial, sans-serif; font-size: 12px; fill: rgb(42, 63, 95); fill-opacity: 1; white-space: pre; opacity: 1;" transform="translate(0,15.000000000000002)">100</text></g></g><g class="cbtitleunshift" transform="translate(-5,-5)"><g class="cbtitle" transform="translate(10.166015625,0)"><text class="hycb897f33title" transform="rotate(-90,671.5999999999999,175)" x="671.5999999999999" y="175" text-anchor="middle" style="font-family: 'Open Sans', verdana, arial, sans-serif; font-size: 14px; fill: rgb(42, 63, 95); opacity: 1; font-weight: normal; white-space: pre;">Line Loading [%]</text></g></g><rect class="cboutline" x="633" y="10" width="10" height="320" style="stroke: rgb(68, 68, 68); stroke-opacity: 1; fill: none; stroke-width: 0;"/></g><g class="cb3d6958 colorbar" transform="translate(5,5)"><rect class="cbbg" x="566" y="0" width="60.765625" height="340" style="fill: rgb(0, 0, 0); fill-opacity: 0; stroke: rgb(68, 68, 68); stroke-opacity: 1; stroke-width: 0;"/><g class="cbfills" transform="translate(0,10)"><rect class="cbfill" x="576" y="0" width="10" height="320" style="fill: url('#g4ec13a-cb3d6958');"/></g><g class="cblines" transform="translate(0,10)"/><g class="cbaxis crisp" transform="translate(0,-5)"><g class="ycb3d6958tick"><text text-anchor="start" x="588.9" y="4.199999999999999" transform="translate(0,335)" style="font-family: 'Open Sans', verdana, arial, sans-serif; font-size: 12px; fill: rgb(42, 63, 95); fill-opacity: 1; white-space: pre; opacity: 1;">0.9</text></g><g class="ycb3d6958tick"><text text-anchor="start" x="588.9" y="4.199999999999999" style="font-family: 'Open Sans', verdana, arial, sans-serif; font-size: 12px; fill: rgb(42, 63, 95); fill-opacity: 1; white-space: pre; opacity: 1;" transform="translate(0,255)">0.95</text></g><g class="ycb3d6958tick"><text text-anchor="start" x="588.9" y="4.199999999999999" style="font-family: 'Open Sans', verdana, arial, sans-serif; font-size: 12px; fill: rgb(42, 63, 95); fill-opacity: 1; white-space: pre; opacity: 1;" transform="translate(0,175)">1</text></g><g class="ycb3d6958tick"><text text-anchor="start" x="588.9" y="4.199999999999999" style="font-family: 'Open Sans', verdana, arial, sans-serif; font-size: 12px; fill: rgb(42, 63, 95); fill-opacity: 1; white-space: pre; opacity: 1;" transform="translate(0,95)">1.05</text></g><g class="ycb3d6958tick"><text text-anchor="start" x="588.9" y="4.199999999999999" style="font-family: 'Open Sans', verdana, arial, sans-serif; font-size: 12px; fill: rgb(42, 63, 95); fill-opacity: 1; white-space: pre; opacity: 1;" transform="translate(0,15.000000000000002)">1.1</text></g></g><g class="cbtitleunshift" transform="translate(-5,-5)"><g class="cbtitle" transform="translate(2.765625,0)"><text class="hycb3d6958title" transform="rotate(-90,614.9999999999999,175)" x="614.9999999999999" y="175" text-anchor="middle" style="font-family: 'Open Sans', verdana, arial, sans-serif; font-size: 14px; fill: rgb(42, 63, 95); opacity: 1; font-weight: normal; white-space: pre;">Bus Voltage [pu]</text></g></g><rect class="cboutline" x="576" y="10" width="10" height="320" style="stroke: rgb(68, 68, 68); stroke-opacity: 1; fill: none; stroke-width: 0;"/></g><g class="g-gtitle"/><g class="g-xtitle"/><g class="g-ytitle"/></g></svg>